<svg width="12" height="11" viewBox="0 0 12 11" fill="none" xmlns="http://www.w3.org/2000/svg">
<path d="M10.3774 0H6.18256C5.97064 0 5.76741 0.0828531 5.61757 0.230333C5.46772 0.377812 5.38354 0.577837 5.38354 0.786405C5.38354 0.994972 5.46772 1.195 5.61757 1.34248C5.76741 1.48996 5.97064 1.57281 6.18256 1.57281H7.96596C8.00552 1.57274 8.04421 1.58423 8.07712 1.60583C8.11004 1.62743 8.1357 1.65816 8.15085 1.69413C8.16599 1.73009 8.16995 1.76968 8.16221 1.80786C8.15448 1.84605 8.13539 1.88111 8.10739 1.9086L0.224293 9.66727C0.0787461 9.81559 -0.00179029 10.0142 3.02049e-05 10.2204C0.0018507 10.4266 0.0858824 10.6239 0.234026 10.7697C0.38217 10.9155 0.582574 10.9982 0.792073 11C1.00157 11.0018 1.20341 10.9225 1.3541 10.7792L9.23719 3.02058C9.26513 2.99301 9.30076 2.97423 9.33955 2.96662C9.37835 2.959 9.41857 2.9629 9.45511 2.97781C9.49166 2.99271 9.52288 3.01797 9.54482 3.05036C9.56677 3.08276 9.57844 3.12084 9.57837 3.15977V4.91503C9.57837 5.1236 9.66256 5.32362 9.8124 5.4711C9.96224 5.61858 10.1655 5.70143 10.3774 5.70143C10.5893 5.70143 10.7925 5.61858 10.9424 5.4711C11.0922 5.32362 11.1764 5.1236 11.1764 4.91503V0.786405C11.1764 0.577837 11.0922 0.377812 10.9424 0.230333C10.7925 0.0828531 10.5893 0 10.3774 0V0Z" fill="#3A10E5"/>
</svg>
